<svg width="44" height="44" viewBox="0 0 44 44" fill="none" xmlns="http://www.w3.org/2000/svg">
<path d="M22.0003 40.3333C19.4642 40.3333 17.0809 39.852 14.8503 38.8895C12.6198 37.927 10.6795 36.6208 9.02949 34.9708C7.37949 33.3208 6.07324 31.3805 5.11074 29.15C4.14824 26.9194 3.66699 24.5361 3.66699 22C3.66699 19.4638 4.14824 17.0805 5.11074 14.85C6.07324 12.6194 7.37949 10.6791 9.02949 9.02913C10.6795 7.37913 12.6198 6.07288 14.8503 5.11038C17.0809 4.14788 19.4642 3.66663 22.0003 3.66663C26.4614 3.66663 30.3649 5.06454 33.7107 7.86038C37.0566 10.6562 39.142 14.1625 39.967 18.3791H36.2087C35.6281 16.1486 34.5816 14.1548 33.0691 12.3979C31.5566 10.6409 29.7003 9.3194 27.5003 8.43329V9.16663C27.5003 10.175 27.1413 11.0382 26.4232 11.7562C25.7052 12.4743 24.842 12.8333 23.8337 12.8333H20.167V16.5C20.167 17.0194 19.9913 17.4548 19.6399 17.8062C19.2885 18.1576 18.8531 18.3333 18.3337 18.3333H14.667V22H18.3337V27.5H16.5003L7.70033 18.7C7.60866 19.25 7.52463 19.8 7.44824 20.35C7.37185 20.9 7.33366 21.45 7.33366 22C7.33366 26.0027 8.73921 29.4402 11.5503 32.3125C14.3614 35.1847 17.8448 36.6361 22.0003 36.6666V40.3333ZM38.6837 39.4166L32.817 33.55C32.1753 33.9166 31.4878 34.2222 30.7545 34.4666C30.0212 34.7111 29.242 34.8333 28.417 34.8333C26.1253 34.8333 24.1774 34.0312 22.5732 32.427C20.9691 30.8229 20.167 28.875 20.167 26.5833C20.167 24.2916 20.9691 22.3437 22.5732 20.7395C24.1774 19.1354 26.1253 18.3333 28.417 18.3333C30.7087 18.3333 32.6566 19.1354 34.2607 20.7395C35.8649 22.3437 36.667 24.2916 36.667 26.5833C36.667 27.4083 36.5448 28.1875 36.3003 28.9208C36.0559 29.6541 35.7503 30.3416 35.3837 30.9833L41.2503 36.85L38.6837 39.4166ZM28.417 31.1666C29.7003 31.1666 30.785 30.7236 31.6712 29.8375C32.5573 28.9513 33.0003 27.8666 33.0003 26.5833C33.0003 25.3 32.5573 24.2152 31.6712 23.3291C30.785 22.443 29.7003 22 28.417 22C27.1337 22 26.0489 22.443 25.1628 23.3291C24.2767 24.2152 23.8337 25.3 23.8337 26.5833C23.8337 27.8666 24.2767 28.9513 25.1628 29.8375C26.0489 30.7236 27.1337 31.1666 28.417 31.1666Z" fill="white"/>
</svg>
