<svg width="76" height="137" viewBox="0 0 76 137" fill="none" xmlns="http://www.w3.org/2000/svg">
<g clip-path="url(#clip0_1_613)">
<path d="M15.5088 20.0333C13.0526 20.0333 11.0175 17.9948 11.0175 15.5346C11.0175 13.0744 13.0526 11.0359 15.5088 11.0359C17.9649 11.0359 20 13.0744 20 15.5346C20 17.9948 17.9649 20.0333 15.5088 20.0333Z" fill="white"/>
<path d="M14.4562 31.0692C12.0001 31.0692 9.965 29.0307 9.965 26.5705C9.965 24.1103 12.0001 22.0718 14.4562 22.0718C16.9124 22.0718 18.9475 24.1103 18.9475 26.5705C19.0176 29.0307 16.9825 31.0692 14.4562 31.0692Z" fill="white"/>
<path d="M5.47361 8.99743C3.01747 8.99743 0.982386 6.95895 0.982386 4.49872C0.982386 2.03848 3.01747 0 5.47361 0C7.92975 0 9.96484 2.03848 9.96484 4.49872C9.96484 7.02925 7.99993 8.99743 5.47361 8.99743Z" fill="white"/>
<path d="M4.49119 20.0333C2.03505 20.0333 -3.62396e-05 17.9948 -3.62396e-05 15.5346C-3.62396e-05 13.0744 2.03505 11.0359 4.49119 11.0359C6.94733 11.0359 8.98242 13.0744 8.98242 15.5346C8.98242 17.9948 6.94733 20.0333 4.49119 20.0333Z" fill="white"/>
<path d="M71.5088 8.99743C69.0526 8.99743 67.0175 6.95895 67.0175 4.49872C67.0175 2.03848 68.9825 0 71.5088 0C73.9649 0 76 2.03848 76 4.49872C76 7.02925 73.9649 8.99743 71.5088 8.99743Z" fill="white"/>
<path d="M70.5264 20.0333C68.0702 20.0333 66.0351 17.9948 66.0351 15.5346C66.0351 13.0744 68.0702 11.0359 70.5264 11.0359C72.9825 11.0359 75.0176 13.0744 75.0176 15.5346C75.0176 17.9948 72.9825 20.0333 70.5264 20.0333Z" fill="white"/>
<path d="M25.7544 31.0692C23.2982 31.0692 21.2631 29.0307 21.2631 26.5705C21.2631 24.1103 23.2982 22.0718 25.7544 22.0718C28.2105 22.0718 30.2456 24.1103 30.2456 26.5705C30.2456 29.0307 28.2105 31.0692 25.7544 31.0692Z" fill="white"/>
<path d="M48.2106 31.0692C45.7545 31.0692 43.7194 29.0307 43.7194 26.5705C43.7194 24.1103 45.7545 22.0718 48.2106 22.0718C50.6668 22.0718 52.7019 24.1103 52.7019 26.5705C52.772 29.0307 50.7369 31.0692 48.2106 31.0692Z" fill="white"/>
<path d="M59.5088 20.0333C57.0526 20.0333 55.0175 17.9948 55.0175 15.5346C55.0175 13.0744 57.0526 11.0359 59.5088 11.0359C61.9649 11.0359 64 13.0744 64 15.5346C64 17.9948 61.9649 20.0333 59.5088 20.0333Z" fill="white"/>
<path d="M55.0175 26.5705C55.0175 29.0551 57.0283 31.0692 59.5088 31.0692C61.9892 31.0692 64 29.0551 64 26.5705C64 24.0859 61.9892 22.0718 59.5088 22.0718C57.0283 22.0718 55.0175 24.0859 55.0175 26.5705Z" fill="white"/>
<path d="M37.4736 42.1051C35.0175 42.1051 32.9824 40.0666 32.9824 37.6064C32.9824 35.1461 35.0175 33.0374 37.4736 33.0374C39.9298 33.0374 41.9648 35.0758 41.9648 37.5361C41.9648 39.9963 39.9999 42.1051 37.4736 42.1051Z" fill="white"/>
<path d="M26.456 42.1051C23.9999 42.1051 21.9648 40.0666 21.9648 37.6064C21.9648 35.1461 23.9999 33.0374 26.456 33.0374C28.9122 33.0374 30.9473 35.0758 30.9473 37.5361C30.9473 39.9963 28.9824 42.1051 26.456 42.1051Z" fill="white"/>
<path d="M37.4736 53.0709C35.0175 53.0709 32.9824 51.0324 32.9824 48.5722C32.9824 46.112 35.0175 44.0735 37.4736 44.0735C39.9298 44.0735 41.9648 46.112 41.9648 48.5722C41.9648 51.1027 39.9999 53.0709 37.4736 53.0709Z" fill="white"/>
<path d="M48.4912 42.1051C46.0351 42.1051 44 40.0666 44 37.6064C44 35.1461 46.0351 33.0374 48.4912 33.0374C50.9473 33.0374 52.9824 35.0758 52.9824 37.5361C52.9824 39.9963 50.9473 42.1051 48.4912 42.1051Z" fill="white"/>
<path d="M15.5088 60.8029C13.0526 60.8029 11.0175 58.7644 11.0175 56.3041C11.0175 53.8439 13.0526 51.8054 15.5088 51.8054C17.9649 51.8054 20 53.8439 20 56.3041C20 58.7644 17.9649 60.8029 15.5088 60.8029Z" fill="white"/>
<path d="M14.4562 71.8387C12.0001 71.8387 9.965 69.8003 9.965 67.34C9.965 64.8798 12.0001 62.8413 14.4562 62.8413C16.9124 62.8413 18.9475 64.8798 18.9475 67.34C19.0176 69.8003 16.9825 71.8387 14.4562 71.8387Z" fill="white"/>
<path d="M5.47361 49.767C3.01747 49.767 0.982386 47.7285 0.982386 45.2682C0.982386 42.808 3.01747 40.7695 5.47361 40.7695C7.92975 40.7695 9.96484 42.808 9.96484 45.2682C9.96484 47.7988 7.99993 49.767 5.47361 49.767Z" fill="white"/>
<path d="M4.49119 60.8029C2.03505 60.8029 -3.62396e-05 58.7644 -3.62396e-05 56.3041C-3.62396e-05 53.8439 2.03505 51.8054 4.49119 51.8054C6.94733 51.8054 8.98242 53.8439 8.98242 56.3041C8.98242 58.7644 6.94733 60.8029 4.49119 60.8029Z" fill="white"/>
<path d="M71.5088 49.767C69.0526 49.767 67.0175 47.7285 67.0175 45.2682C67.0175 42.808 69.0526 40.7695 71.5088 40.7695C73.9649 40.7695 76 42.808 76 45.2682C76 47.7988 73.9649 49.767 71.5088 49.767Z" fill="white"/>
<path d="M70.5264 60.8029C68.0702 60.8029 66.0351 58.7644 66.0351 56.3041C66.0351 53.8439 68.0702 51.8054 70.5264 51.8054C72.9825 51.8054 75.0176 53.8439 75.0176 56.3041C75.0176 58.7644 72.9825 60.8029 70.5264 60.8029Z" fill="white"/>
<path d="M25.7544 71.8387C23.2982 71.8387 21.2631 69.8003 21.2631 67.34C21.2631 64.8798 23.2982 62.8413 25.7544 62.8413C28.2105 62.8413 30.2456 64.8798 30.2456 67.34C30.2456 69.8003 28.2105 71.8387 25.7544 71.8387Z" fill="white"/>
<path d="M48.2106 71.8387C45.7545 71.8387 43.7194 69.8003 43.7194 67.34C43.7194 64.8798 45.7545 62.8413 48.2106 62.8413C50.6668 62.8413 52.7019 64.8798 52.7019 67.34C52.772 69.8003 50.7369 71.8387 48.2106 71.8387Z" fill="white"/>
<path d="M59.5088 60.8029C57.0526 60.8029 55.0175 58.7644 55.0175 56.3041C55.0175 53.8439 57.0526 51.8054 59.5088 51.8054C61.9649 51.8054 64 53.8439 64 56.3041C64 58.7644 61.9649 60.8029 59.5088 60.8029Z" fill="white"/>
<path d="M59.5088 71.8387C57.0526 71.8387 55.0175 69.8003 55.0175 67.34C55.0175 64.8798 57.0526 62.8413 59.5088 62.8413C61.9649 62.8413 64 64.8798 64 67.34C64 69.8003 61.9649 71.8387 59.5088 71.8387Z" fill="white"/>
<path d="M37.4736 82.8746C35.0175 82.8746 32.9824 80.8362 32.9824 78.3759C32.9824 75.9157 35.0175 73.8772 37.4736 73.8772C39.9298 73.8772 41.9648 75.9157 41.9648 78.3759C41.9648 80.8362 39.9999 82.8746 37.4736 82.8746Z" fill="white"/>
<path d="M26.4562 82.8746C24.0001 82.8746 21.965 80.8362 21.965 78.3759C21.965 75.9157 24.0001 73.8772 26.4562 73.8772C28.9124 73.8772 30.9475 75.9157 30.9475 78.3759C31.0176 80.8362 28.9825 82.8746 26.4562 82.8746Z" fill="white"/>
<path d="M37.4736 93.8405C35.0175 93.8405 32.9824 91.802 32.9824 89.3417C32.9824 86.8815 35.0175 84.843 37.4736 84.843C39.9298 84.843 41.9648 86.8815 41.9648 89.3417C41.9648 91.8723 39.9999 93.8405 37.4736 93.8405Z" fill="white"/>
<path d="M48.4912 82.8746C46.0351 82.8746 44 80.8362 44 78.3759C44 75.9157 46.0351 73.8772 48.4912 73.8772C50.9473 73.8772 52.9824 75.9157 52.9824 78.3759C52.9824 80.8362 50.9473 82.8746 48.4912 82.8746Z" fill="white"/>
<path d="M15.5088 103.963C13.0526 103.963 11.0175 101.924 11.0175 99.4638C11.0175 97.0036 13.0526 94.9651 15.5088 94.9651C17.9649 94.9651 20 97.0036 20 99.4638C20 101.924 17.9649 103.963 15.5088 103.963Z" fill="white"/>
<path d="M14.4562 114.998C12.0001 114.998 9.965 112.96 9.965 110.5C9.965 108.039 12.0001 106.001 14.4562 106.001C16.9124 106.001 18.9475 108.039 18.9475 110.5C19.0176 112.96 16.9825 114.998 14.4562 114.998Z" fill="white"/>
<path d="M5.47361 92.9266C3.01747 92.9266 0.982386 90.8882 0.982386 88.4279C0.982386 85.9677 3.01747 83.9292 5.47361 83.9292C7.92975 83.9292 9.96484 85.9677 9.96484 88.4279C9.96484 90.8882 7.99993 92.9266 5.47361 92.9266Z" fill="white"/>
<path d="M4.49119 103.963C2.03505 103.963 -3.62396e-05 101.924 -3.62396e-05 99.4638C-3.62396e-05 97.0036 2.03505 94.9651 4.49119 94.9651C6.94733 94.9651 8.98242 97.0036 8.98242 99.4638C8.98242 101.924 6.94733 103.963 4.49119 103.963Z" fill="white"/>
<path d="M71.5088 92.9266C69.0526 92.9266 67.0175 90.8882 67.0175 88.4279C67.0175 85.9677 69.0526 83.9292 71.5088 83.9292C73.9649 83.9292 76 85.9677 76 88.4279C76 90.8882 73.9649 92.9266 71.5088 92.9266Z" fill="white"/>
<path d="M70.5264 103.963C68.0702 103.963 66.0351 101.924 66.0351 99.4638C66.0351 97.0036 68.0702 94.9651 70.5264 94.9651C72.9825 94.9651 75.0176 97.0036 75.0176 99.4638C75.0176 101.924 72.9825 103.963 70.5264 103.963Z" fill="white"/>
<path d="M25.7544 114.998C23.2982 114.998 21.2631 112.96 21.2631 110.5C21.2631 108.039 23.2982 106.001 25.7544 106.001C28.2105 106.001 30.2456 108.039 30.2456 110.5C30.2456 112.96 28.2105 114.998 25.7544 114.998Z" fill="white"/>
<path d="M48.2106 114.998C45.7545 114.998 43.7194 112.96 43.7194 110.5C43.7194 108.039 45.7545 106.001 48.2106 106.001C50.6668 106.001 52.7019 108.039 52.7019 110.5C52.772 112.96 50.7369 114.998 48.2106 114.998Z" fill="white"/>
<path d="M59.5088 103.963C57.0526 103.963 55.0175 101.924 55.0175 99.4638C55.0175 97.0036 57.0526 94.9651 59.5088 94.9651C61.9649 94.9651 64 97.0036 64 99.4638C64 101.924 61.9649 103.963 59.5088 103.963Z" fill="white"/>
<path d="M59.5088 114.998C57.0526 114.998 55.0175 112.96 55.0175 110.5C55.0175 108.039 57.0526 106.001 59.5088 106.001C61.9649 106.001 64 108.039 64 110.5C64 112.96 61.9649 114.998 59.5088 114.998Z" fill="white"/>
<path d="M37.4736 126.034C35.0175 126.034 32.9824 123.996 32.9824 121.536C32.9824 119.075 35.0175 117.037 37.4736 117.037C39.9298 117.037 41.9648 119.075 41.9648 121.536C41.9648 123.996 39.9999 126.034 37.4736 126.034Z" fill="white"/>
<path d="M26.4562 126.034C24.0001 126.034 21.965 123.996 21.965 121.536C21.965 119.075 24.0001 117.037 26.4562 117.037C28.9124 117.037 30.9475 119.075 30.9475 121.536C31.0176 123.996 28.9825 126.034 26.4562 126.034Z" fill="white"/>
<path d="M37.4736 137C35.0175 137 32.9824 134.962 32.9824 132.501C32.9824 130.041 35.0175 128.003 37.4736 128.003C39.9298 128.003 41.9648 130.041 41.9648 132.501C41.9648 135.032 39.9999 137 37.4736 137Z" fill="white"/>
<path d="M48.4912 126.034C46.0351 126.034 44 123.996 44 121.536C44 119.075 46.0351 117.037 48.4912 117.037C50.9473 117.037 52.9824 119.075 52.9824 121.536C52.9824 123.996 50.9473 126.034 48.4912 126.034Z" fill="white"/>
</g>
<defs>
<clipPath id="clip0_1_613">
<rect width="137" height="76" fill="white" transform="matrix(0 1 -1 0 76 0)"/>
</clipPath>
</defs>
</svg>
