<svg width="50" height="50" viewBox="0 0 50 50" fill="none" xmlns="http://www.w3.org/2000/svg">
<path d="M8.33366 41.6667C7.18783 41.6667 6.20692 41.2587 5.39095 40.4427C4.57498 39.6268 4.16699 38.6459 4.16699 37.5V12.5C4.16699 11.3542 4.57498 10.3733 5.39095 9.55733C6.20692 8.74136 7.18783 8.33337 8.33366 8.33337H41.667C42.8128 8.33337 43.7937 8.74136 44.6097 9.55733C45.4257 10.3733 45.8337 11.3542 45.8337 12.5V37.5C45.8337 38.6459 45.4257 39.6268 44.6097 40.4427C43.7937 41.2587 42.8128 41.6667 41.667 41.6667H8.33366ZM25.0003 27.0834L8.33366 16.6667V37.5H41.667V16.6667L25.0003 27.0834ZM25.0003 22.9167L41.667 12.5H8.33366L25.0003 22.9167ZM8.33366 16.6667V12.5V37.5V16.6667Z" fill="white"/>
</svg>
