<svg width="44" height="44" viewBox="0 0 44 44" fill="none" xmlns="http://www.w3.org/2000/svg">
<path d="M21.6333 29.7L24.2 27.1333L18.3333 21.2667V12.8333H14.6667V22.7333L21.6333 29.7ZM33 37.5833V33.55C35.2611 32.4806 37.0486 30.9069 38.3625 28.8292C39.6764 26.7514 40.3333 24.475 40.3333 22C40.3333 19.525 39.6764 17.2486 38.3625 15.1708C37.0486 13.0931 35.2611 11.5194 33 10.45V6.41667C36.3306 7.57778 38.9965 9.58681 40.9979 12.4438C42.9993 15.3007 44 18.4861 44 22C44 25.5139 42.9993 28.6993 40.9979 31.5562C38.9965 34.4132 36.3306 36.4222 33 37.5833ZM16.5 38.5C14.2083 38.5 12.0618 38.0646 10.0604 37.1938C8.05903 36.3229 6.31736 35.1465 4.83542 33.6646C3.35347 32.1826 2.17708 30.441 1.30625 28.4396C0.435417 26.4382 0 24.2917 0 22C0 19.7083 0.435417 17.5618 1.30625 15.5604C2.17708 13.559 3.35347 11.8174 4.83542 10.3354C6.31736 8.85347 8.05903 7.67708 10.0604 6.80625C12.0618 5.93542 14.2083 5.5 16.5 5.5C18.7917 5.5 20.9382 5.93542 22.9396 6.80625C24.941 7.67708 26.6826 8.85347 28.1646 10.3354C29.6465 11.8174 30.8229 13.559 31.6938 15.5604C32.5646 17.5618 33 19.7083 33 22C33 24.2917 32.5646 26.4382 31.6938 28.4396C30.8229 30.441 29.6465 32.1826 28.1646 33.6646C26.6826 35.1465 24.941 36.3229 22.9396 37.1938C20.9382 38.0646 18.7917 38.5 16.5 38.5ZM16.5 34.8333C20.075 34.8333 23.1076 33.5882 25.5979 31.0979C28.0882 28.6076 29.3333 25.575 29.3333 22C29.3333 18.425 28.0882 15.3924 25.5979 12.9021C23.1076 10.4118 20.075 9.16667 16.5 9.16667C12.925 9.16667 9.89236 10.4118 7.40208 12.9021C4.91181 15.3924 3.66667 18.425 3.66667 22C3.66667 25.575 4.91181 28.6076 7.40208 31.0979C9.89236 33.5882 12.925 34.8333 16.5 34.8333Z" fill="white"/>
</svg>
